<?xml version="1.0" encoding="UTF-8"?>
<svg xmlns="http://www.w3.org/2000/svg" version="1.1" width="4096" height="3632">
  <path d="M0 0 C1.8871875 0.00773437 1.8871875 0.00773437 3.8125 0.015625 C5.070625 0.01046875 6.32875 0.0053125 7.625 0 C10.8125 0.265625 10.8125 0.265625 12.8125 2.265625 C15.91746923 2.73287067 15.91746923 2.73287067 19.5703125 2.8984375 C20.23336395 2.93999969 20.89641541 2.98156189 21.57955933 3.02438354 C23.69845008 3.15519005 25.81783771 3.27305261 27.9375 3.390625 C29.3125 3.484375 30.6875 3.578125 32.0625 3.671875 C34.1875 3.796875 36.3125 3.921875 38.4375 4.046875 C40.4375 4.15625 42.4375 4.265625 44.4375 4.375 C45.4375 4.453125 46.4375 4.53125 47.4375 4.609375 C48.4375 4.6875 49.4375 4.765625 50.4375 4.84375 C51.4375 4.921875 52.4375 5 53.4375 5.078125 C54.4375 5.15625 55.4375 5.234375 56.4375 5.3125 C57.4375 5.390625 58.4375 5.46875 59.4375 5.546875 C60.4375 5.625 61.4375 5.703125 62.4375 5.78125 C63.4375 5.859375 64.4375 5.9375 65.4375 6.015625 C66.4375 6.09375 67.4375 6.171875 68.4375 6.25 C69.4375 6.328125 70.4375 6.40625 71.4375 6.484375 C72.4375 6.5625 73.4375 6.640625 74.4375 6.71875 C75.4375 6.796875 76.4375 6.875 77.4375 6.953125 C78.4375 7.03125 79.4375 7.109375 80.4375 7.1875 C81.4375 7.265625 82.4375 7.34375 83.4375 7.421875 C84.4375 7.5 85.4375 7.578125 86.4375 7.65625 C87.4375 7.734375 88.4375 7.8125 89.4375 7.890625 C90.4375 7.96875 91.4375 8.046875 92.4375 8.125 C93.4375 8.203125 94.4375 8.28125 95.4375 8.359375 C96.4375 8.4375 97.4375 8.515625 98.4375 8.59375 C99.4375 8.671875 100.4375 8.75 101.4375 8.828125 C102.4375 8.90625 103.4375 8.984375 104.4375 9.0625 C105.4375 9.140625 106.4375 9.21875 107.4375 9.296875 C108.4375 9.375 109.4375 9.453125 110.4375 9.53125 C111.4375 9.609375 112.4375 9.6875 113.4375 9.765625 C114.4375 9.84375 115.4375 9.921875 116.4375 10 C117.4375 10.078125 118.4375 10.15625 119.4375 10.234375 C120.4375 10.3125 121.4375 10.390625 122.4375 10.46875 C123.4375 10.546875 124.4375 10.625 125.4375 10.703125 C126.4375 10.78125 127.4375 10.859375 128.4375 10.9375 C129.4375 11.015625 130.4375 11.09375 131.4375 11.171875 C132.4375 11.25 133.4375 11.328125 134.4375 11.40625 C135.4375 11.484375 136.4375 11.5625 137.4375 11.640625 C138.4375 11.71875 139.4375 11.796875 140.4375 11.875 C141.4375 11.953125 142.4375 12.03125 143.4375 12.109375 C144.4375 12.1875 145.4375 12.265625 146.4375 12.34375 C147.4375 12.421875 148.4375 12.5 149.4375 12.578125 C150.4375 12.65625 151.4375 12.734375 152.4375 12.8125 C153.4375 12.890625 154.4375 12.96875 155.4375 13.046875 C156.4375 13.125 157.4375 13.203125 158.4375 13.28125 C159.4375 13.359375 160.4375 13.4375 161.4375 13.515625 C162.4375 13.59375 163.4375 13.671875 164.4375 13.75 C165.4375 13.828125 166.4375 13.90625 167.4375 13.984375 C168.4375 14.0625 169.4375 14.140625 170.4375 14.21875 C171.4375 14.296875 172.4375 14.375 173.4375 14.453125 C174.4375 14.53125 175.4375 14.609375 176.4375 14.6875 C177.4375 14.765625 178.4375 14.84375 179.4375 14.921875 C180.4375 14.984375 181.4375 15.03125 182.4375 15.078125 C183.4375 15.140625 184.4375 15.1875 185.4375 15.234375 C186.4375 15.28125 187.4375 15.328125 188.4375 15.375 C189.4375 15.421875 190.4375 15.46875 191.4375 15.515625 C192.4375 15.5625 193.4375 15.609375 194.4375 15.65625 C195.4375 15.703125 196.4375 15.75 197.4375 15.796875 C198.4375 15.84375 199.4375 15.890625 200.4375 15.9375... "/>
</svg>