//<svg t="1729560972121" class="icon" viewBox="0 0 1024 1024" version="1.1" xmlns="http://www.w3.org/2000/svg" p-id="1543" width="200" height="200"><path d="M829.12 224A201.92 201.92 0 0 0 672 448c-100.16-117.76-96-253.12-96-448C256 120.96 329.6 470.08 320 576c-80.64-66.24-96-224-96-224-85.12 43.84-128 160-128 256a416 416 0 0 0 832 0c0-136.64-100.16-199.68-98.88-384zM528 960A371.52 371.52 0 0 1 160 596.16 154.56 154.56 0 0 1 192 480c-3.52 20.16 44.8 193.6 201.6 184.64-6.72-131.84-41.6-454.72 123.2-566.4C502.4 273.92 544 509.44 736 544c-10.88-70.4-9.6-187.52 39.68-208.96 5.12 107.84 84.8 174.08 84.8 277.76C861.44 800 680 960 528 960z" fill="#FFFFFF" p-id="1544"></path></svg>


<svg t="1729561005481" class="icon" viewBox="0 0 1024 1024" version="1.1" xmlns="http://www.w3.org/2000/svg" p-id="1686" width="200" height="200"><path d="M652.03712 742.4l-56.82688-42.61888L749.01504 281.6 323.4304 326.69184 276.48 283.45344l65.47456 276.11136 23.4752-93.27616 234.10688-79.06304-206.3104 307.6096-78.44864 29.0304z" fill="#303030" p-id="1687"></path></svg>