<?xml version="1.0" encoding="UTF-8"?>
<svg version="1.1" xmlns="http://www.w3.org/2000/svg" width="500" height="500">
<path d="M0 0 C-5.32024605 15.3424568 -10.81743309 30.61707867 -16.375 45.875 C-16.80963562 47.06941711 -17.24427124 48.26383423 -17.69207764 49.4944458 C-24.65310348 68.62181729 -31.67984303 87.72419742 -38.74952698 106.81163025 C-39.09386276 107.74133133 -39.43819855 108.67103241 -39.79296875 109.62890625 C-40.13670029 110.55695572 -40.48043182 111.48500519 -40.83457947 112.44117737 C-44.88826448 123.39116022 -48.91348267 134.3515872 -52.9375 145.3125 C-53.31170074 146.3316449 -53.68590149 147.35078979 -54.07144165 148.40081787 C-56.34058878 154.58103569 -58.60915879 160.76146521 -60.87756348 166.94195557 C-64.18819655 175.96167547 -67.50005398 184.98094574 -70.8125 194 C-71.17882538 194.99746246 -71.54515076 195.99492493 -71.9225769 197.02261353 C-78.55008392 215.06710983 -85.19461844 233.10531269 -91.84243774 251.14233398 C-97.90479398 267.59128707 -103.95811116 284.04351839 -110 300.5 C-116.2028067 317.39389963 -122.41476395 334.2844148 -128.63574219 351.17163086 C-129.52449138 353.58420003 -130.41316696 355.99679633 -131.30175781 358.40942383 C-137.51564569 375.27996199 -143.75048319 392.14263172 -150 409 C-149.37846542 409.30404755 -148.75693085 409.60809509 -148.11656189 409.9213562 C-145.96298414 411.01886405 -144.1337072 412.25926384 -142.19140625 413.6953125 C-141.45470703 414.23849121 -140.71800781 414.78166992 -139.95898438 415.34130859 C-139.16814453 415.92992676 -138.37730469 416.51854492 -137.5625 417.125 C-136.73427734 417.73811035 -135.90605469 418.3512207 -135.05273438 418.98291016 C-127.75986337 424.39801688 -120.53524722 429.9017834 -113.32373047 435.42456055 C-107.83824372 439.62077661 -102.31196914 443.73341712 -96.66796875 447.71484375 C-96.11753906 448.13894531 -95.56710937 448.56304687 -95 449 C-95 449.33 -95 449.66 -95 450 C-110.04434909 450.30444899 -125.02334542 449.4237156 -140.0382632 448.59208727 C-143.80953917 448.3842245 -147.58110426 448.18172917 -151.35263062 447.97846985 C-158.71462066 447.58081122 -166.0763245 447.17808078 -173.43792514 446.77328302 C-179.41900937 446.44442417 -185.40017464 446.11708018 -191.38139915 445.79078293 C-208.36022619 444.86436943 -225.33884047 443.93418882 -242.31718443 442.99896295 C-243.22950331 442.94870948 -244.1418222 442.898456 -245.08178711 442.84667969 C-245.99522431 442.79636386 -246.9086615 442.74604803 -247.84977861 442.69420747 C-262.69597732 441.87664935 -277.54265174 441.06810833 -292.38956354 440.26361366 C-307.65469883 439.43635734 -322.91946212 438.60251928 -338.18385857 437.76173723 C-346.74606786 437.29025334 -355.3084061 436.82149068 -363.87114906 436.3597908 C-371.14920781 435.96730629 -378.42690001 435.56871733 -385.70418433 435.1621163 C-389.41688595 434.95485395 -393.12968807 434.7504831 -396.84296608 434.55379295 C-400.86339729 434.34074742 -404.88293912 434.11403235 -408.90254211 433.88589478 C-410.08159774 433.82557434 -411.26065336 433.7652539 -412.47543794 433.70310557 C-413.54928749 433.63990575 -414.62313703 433.57670593 -415.72952747 433.51159096 C-416.65746201 433.46070843 -417.58539655 433.40982591 -418.54145032 433.35740149 C-421.0725596 432.98945195 -422.79945452 432.27510479 -425 431 C-424.44608078 430.79670074 -423.89216156 430.59340149 -423.32145691 430.38394165 C-421.62060128 429.75966829 -419.91977877 429.13530471 -418.21897888 428.51087952 C-416.1973106 427.76890439 -414.17546516 427.02741183 -412.15345764 426.28636169 C-406.56282567 424.23635077 -400.97601869 422.17678279 -395.39550781 420.09936523 C-376.132087 412.94499863 -376.132087 412.94499863 -367.19140625 410.24609375 C-365.98395752 409.86308105 -364.77650879 409.48006836 -363.5324707 409.08544922 C-361.45772217 408.43887455 -359.36654982 407.84115078 -357.25854492 407.31298828 C-347.29898945 404.10783328 -342.93822523 395.0322497 -337.66912842 386.63259888 C-335.00204965 382.42600308 -332.17956206 378.32773602 -329.37109375 374.21484375 C-328.23645378 372.53660206 -327.10300931 370.85755155 -325.97070312 369.17773438 C-325.39586182 368.32526123 -324.82102051 367.47278809 -324.22875977 366.59448242 C-323.63764404 365.71767822 -323.04652832 364.84087402 -322.4375 363.9375 C-321.81883057 363.02025146 -321.20016113 362.10300293 -320.56274414 361.15795898 C-310.74760122 346.60309415 -300.99125693 332.00988556 -291.26638794 317.39459229 C-281.7479858 303.09151289 -272.16056459 288.83629731 -262.54248047 274.60009766 C-253.44618066 261.13426884 -244.40586414 247.63260473 -235.4052124 234.10269165 C-226.82059601 221.20083371 -218.17477762 208.3413861 -209.5 195.5 C-197.65519188 177.96444966 -185.88594117 160.37995495 -174.16549683 142.76107788 C-168.8565172 134.78119584 -163.53953823 126.80664909 -158.22265625 118.83203125 C-157.76510893 118.14576849 -157.30756161 117.45950573 -156.83614922 116.75244713 C-154.22419741 112.83489945 -151.61214127 108.91742135 -149 105 C-207.99321926 124.83517947 -207.99321926 124.83517947 -266.96614456 144.73056412 C-269.07920142 145.44425316 -271.19288691 146.15605103 -273.30673218 146.86740112 C-279.16871501 148.84235874 -285.02451982 150.82950578 -290.85534859 152.89491844 C-303.63030735 157.41964088 -316.26798305 161.4269208 -329.47920609 164.40582657 C-355.3771167 169.28207229 -355.3771167 169.28207229 -376.03387451 183.63378906 C-383.83594788 197.07983821 -385.47624283 213.13746408 -387.15917969 228.32177734 C-388.167344 237.08859441 -390.31887839 245.48100201 -392.62835693 253.98071289 C-393.23718439 256.26442855 -393.80080192 258.55436192 -394.34814453 260.85351562 C-394.51514862 261.54664352 -394.68215271 262.23977142 -394.85421753 262.9539032 C-395.29354903 264.78191434 -395.73131414 266.61030175 -396.16894531 268.4387207 C-396.44319336 269.28394287 -396.71744141 270.12916504 -397 271 C-397.66 271.33 -398.32 271.66 -399 272 C-399.21344055 271.09692108 -399.4268811 270.19384216 -399.64678955 269.26339722 C-402.51370232 257.13373662 -405.3815904 245.00430671 -408.25 232.875 C-408.48924572 231.86332512 -408.72849144 230.85165024 -408.97498703 229.80931854 C-418.39845741 189.96266338 -427.84657791 150.12187391 -437.30554199 110.28363037 C-437.73009328 108.49554805 -437.73009328 108.49554805 -438.16322136 106.67134285 C-438.7299721 104.28439987 -439.2967407 101.89746112 -439.8635273 99.51052666 C-441.24971071 93.67231957 -442.63519067 87.83394715 -444.01913452 81.99520874 C-444.56499231 79.69244144 -445.11086023 77.38967655 -445.65673828 75.08691406 C-446.06154576 73.37914386 -446.06154576 73.37914386 -446.47453117 71.63687325 C-448.08386806 64.85122725 -449.69880496 58.06693763 -451.31896573 51.28386891 C-452.70181679 45.49401375 -454.08053493 39.70317929 -455.4580822 33.91205978 C-456.04174222 31.46219438 -456.62699169 29.01270705 -457.21389961 26.56361771 C-458.02289762 23.18708563 -458.8264031 19.80929089 -459.62866211 16.43115234 C-459.8703179 15.42868847 -460.11197369 14.42622459 -460.36095238 13.39338303 C-460.57839922 12.4729987 -460.79584606 11.55261436 -461.0198822 10.6043396 C-461.21029555 9.80694555 -461.4007089 9.00955151 -461.59689236 8.187994 C-462 6 -462 6 -462 2 C-458.51345524 3.4841373 -456.35808928 5.46214052 -453.75 8.1875 C-451.03483248 10.96417617 -448.32543996 13.66223261 -445.375 16.1875 C-440.72119465 20.18046499 -436.2708102 24.38509728 -431.80615234 28.58666992 C-430.5925017 29.72630957 -429.36476005 30.85113751 -428.12308502 31.96017742 C-426 34 -426 34 -424.13408661 36.36433887 C-421.23792368 39.68088973 -418.48738965 42.55300309 -413.99139977 43.36095595 C-407.89248528 43.65707851 -401.84619163 42.76603031 -395.80664062 42.01245117 C-393.74326155 41.79206508 -391.67940859 41.57607855 -389.61514664 41.36412144 C-383.97551579 40.77241133 -378.34448328 40.11922774 -372.71292782 39.45558262 C-366.69107851 38.75698166 -360.66307995 38.11604573 -354.63555908 37.46856689 C-344.29920592 36.35052552 -333.96722484 35.19752132 -323.63757324 34.01925659 C-312.89180984 32.79377261 -302.14401871 31.58940097 -291.3927002 30.41360474 C-290.72671262 30.34076949 -290.06072505 30.26793425 -289.37455603 30.19289187 C-286.00444023 29.82448622 -282.63427203 29.45656242 -279.26407385 29.08891118 C-272.49547832 28.35048264 -265.72716106 27.6095134 -258.95892334 26.86781311 C-258.2878996 26.79428929 -257.61687586 26.72076547 -256.92551807 26.64501365 C-246.71663375 25.52602758 -236.50905746 24.39558852 -226.30230713 23.25730896 C-225.63000748 23.1823358 -224.95770784 23.10736265 -224.26503548 23.03011758 C-221.56085377 22.72851904 -218.85667981 22.42685114 -216.1525117 22.12513064 C-176.22303947 17.66997605 -136.27531265 13.39522178 -96.31918335 9.18655109 C-85.36634132 8.0326432 -74.41453962 6.86949479 -63.46373367 5.69642067 C-57.56587939 5.06464058 -51.667688 4.43603932 -45.76938319 3.80848038 C-41.91957673 3.39872277 -38.06994048 2.98750811 -34.22071075 2.57236481 C-30.10307773 2.12833479 -25.98470027 1.69163091 -21.86621094 1.25561523 C-20.68073418 1.12652362 -19.49525742 0.997432 -18.27385712 0.86442852 C-12.14119346 0.2216153 -6.16630198 -0.13093196 0 0 Z " fill="#FFFFFF" transform="translate(482,25)"/>
</svg>
